<?xml version="1.0" encoding="utf-8"?>
<!-- Generator: Adobe Illustrator 16.0.0, SVG Export Plug-In . SVG Version: 6.00 Build 0)  -->
<!DOCTYPE svg PUBLIC "-//W3C//DTD SVG 1.1//EN" "http://www.w3.org/Graphics/SVG/1.1/DTD/svg11.dtd">
<svg version="1.1" id="offocial_logo" xmlns="http://www.w3.org/2000/svg" xmlns:xlink="http://www.w3.org/1999/xlink" x="0px"
	 y="0px" width="768px" height="768px" viewBox="299 0 768 768" enable-background="new 299 0 768 768" xml:space="preserve">
<path fill="#0853BF" d="M412.726,0h540.549C1016.083,0,1067,50.917,1067,113.726v540.549C1067,717.083,1016.083,768,953.274,768
	H412.726C349.917,768,299,717.083,299,654.274V113.726C299,50.917,349.917,0,412.726,0z"/>
<title>intelliflex</title>
<path fill="#FFDF10" d="M418.654,387.671c-5.09,0.021-9.233-4.087-9.254-9.177c-0.009-2.021,0.646-3.988,1.866-5.6
	c14.825-19.754,34.539-35.307,57.2-45.128c4.582-2.216,10.093-0.299,12.31,4.283c2.217,4.581,0.3,10.093-4.282,12.31
	c-0.229,0.11-0.463,0.212-0.7,0.304c-19.718,8.564-36.86,22.123-49.736,39.337C424.308,386.323,421.563,387.685,418.654,387.671z"/>
<path fill="#FFDF10" d="M524.592,599.332c-9.293-0.123-18.553-1.152-27.647-3.072c-5.005-0.988-8.261-5.847-7.272-10.852
	s5.847-8.262,10.852-7.273l0,0c16.365,3.568,33.309,3.568,49.674,0c5.01-1.043,9.916,2.172,10.959,7.181
	c1.044,5.01-2.171,9.916-7.181,10.96C544.313,598.307,534.466,599.331,524.592,599.332z"/>
<path fill="#FFDF10" d="M594.68,609.347c-39.644,0-71.885-33.178-71.885-73.974c0.014-7.166,1.049-14.293,3.072-21.166
	c1.421-4.899,6.544-7.719,11.443-6.298c4.898,1.421,7.719,6.544,6.298,11.443c-1.508,5.206-2.268,10.601-2.259,16.021
	c0,30.597,23.962,55.495,53.407,55.495c5.914,0.004,11.785-1.01,17.356-2.995c4.806-1.696,10.077,0.824,11.773,5.63
	c1.697,4.806-0.823,10.076-5.629,11.773C610.691,607.98,602.715,609.357,594.68,609.347z"/>
<path fill="#FFDF10" d="M654.292,306.938V178.606c-0.062-43.417-35.308-78.563-78.724-78.5
	c-39.224,0.055-72.405,29.016-77.764,67.872c-0.47,3.523-0.705,7.074-0.707,10.629c0.051,43.387,35.211,78.546,78.598,78.597
	c5.09,0,9.216,4.126,9.216,9.216c0,5.09-4.126,9.216-9.216,9.216c-45.688-0.058-85.174-31.913-94.895-76.554
	c-42.608,22.73-69.254,67.061-69.335,115.354c-0.052,15.981,2.859,31.835,8.586,46.756c1.706,4.423,3.649,8.75,5.822,12.964
	c1.633,3.146,1.316,6.951-0.814,9.784c-40.751,54.427-29.666,131.583,24.761,172.335c14.078,10.541,30.252,17.943,47.432,21.708l0,0
	l2.703,0.553c4.633,0.888,7.848,5.13,7.449,9.831c-0.169,1.98-0.246,3.993-0.246,6.005c0,1.275,0,2.535,0.093,3.764
	c1.845,40.584,36.239,71.987,76.823,70.143c39.426-1.792,70.412-34.378,70.218-73.845V465.408c-0.014-4.832,3.707-8.854,8.525-9.216
	h1.428c4.818,0.362,8.539,4.384,8.525,9.216v129.023c0.156,50.831-40.923,92.165-91.753,92.321
	c-50.831,0.157-92.165-40.922-92.321-91.753c-75.791-19.284-121.599-96.357-102.314-172.148
	c4.123-16.201,11.081-31.544,20.553-45.318c-34.682-74.473-2.638-162.971,71.686-197.975v-0.953
	c-0.002-53.613,43.458-97.077,97.071-97.079c50.549-0.001,92.639,38.788,96.756,89.168c0.218,0.791,0.326,1.607,0.323,2.427v133.34
	c0.131,5.09-3.889,9.322-8.979,9.454c-5.09,0.131-9.322-3.889-9.454-8.979H654.292z"/>
<path fill="#FFDF10" d="M947.346,387.671c5.09,0.021,9.233-4.087,9.254-9.177c0.009-2.021-0.646-3.988-1.866-5.6
	c-14.825-19.754-34.539-35.307-57.2-45.128c-4.582-2.216-10.093-0.299-12.31,4.283c-2.217,4.581-0.3,10.093,4.282,12.31
	c0.229,0.11,0.463,0.212,0.7,0.304c19.718,8.564,36.86,22.123,49.736,39.337C941.692,386.323,944.437,387.685,947.346,387.671z"/>
<path fill="#FFDF10" d="M841.408,599.332c9.293-0.123,18.553-1.152,27.647-3.072c5.005-0.988,8.261-5.847,7.272-10.852
	s-5.846-8.262-10.852-7.273c-16.365,3.568-33.309,3.568-49.674,0c-5.01-1.043-9.916,2.172-10.959,7.181
	c-1.044,5.01,2.171,9.916,7.18,10.96C821.687,598.307,831.534,599.331,841.408,599.332z"/>
<path fill="#FFDF10" d="M771.32,609.347c39.644,0,71.885-33.178,71.885-73.974c0.011-7.162-0.998-14.289-2.995-21.166
	c-1.421-4.899-6.545-7.719-11.443-6.298c-4.899,1.421-7.719,6.544-6.298,11.443l0,0c1.507,5.206,2.268,10.601,2.258,16.021
	c0,30.597-23.961,55.495-53.406,55.495c-5.915,0.004-11.786-1.01-17.357-2.995c-4.806-1.696-10.076,0.824-11.773,5.63
	c-1.696,4.806,0.824,10.076,5.63,11.773C755.361,607.972,763.311,609.349,771.32,609.347z"/>
<path fill="#FFDF10" d="M711.708,306.938V178.606c0.062-43.417,35.308-78.563,78.724-78.5c39.224,0.055,72.404,29.016,77.764,67.872
	c0.47,3.523,0.705,7.074,0.707,10.629c-0.051,43.387-35.211,78.546-78.598,78.597c-5.09,0-9.216,4.126-9.216,9.216
	c0,5.09,4.126,9.216,9.216,9.216c45.688-0.058,85.174-31.913,94.895-76.554c42.608,22.73,69.254,67.061,69.335,115.354
	c0.052,15.981-2.859,31.835-8.587,46.756c-1.705,4.423-3.648,8.75-5.821,12.964c-1.633,3.146-1.316,6.951,0.814,9.784
	c40.751,54.427,29.665,131.583-24.761,172.335c-14.078,10.541-30.252,17.943-47.432,21.708l0,0l-2.703,0.553
	c-4.633,0.888-7.848,5.13-7.449,9.831c0.169,1.98,0.245,3.993,0.245,6.005c0,1.275,0,2.535-0.092,3.764
	c-1.847,40.583-36.242,71.986-76.826,70.14c-39.424-1.793-70.407-34.377-70.215-73.842V465.408c0.014-4.832-3.707-8.854-8.524-9.216
	h-1.429c-4.818,0.362-8.539,4.384-8.525,9.216v129.023c-0.156,50.831,40.923,92.165,91.753,92.321
	c50.831,0.157,92.165-40.922,92.321-91.753c75.79-19.289,121.593-96.365,102.303-172.155c-4.121-16.192-11.075-31.527-20.541-45.296
	c34.692-74.477,2.646-162.987-71.686-197.99v-0.953c0.002-53.613-43.458-97.077-97.071-97.079
	c-50.549-0.001-92.639,38.788-96.756,89.168c-0.218,0.791-0.326,1.607-0.323,2.427v133.34c-0.131,5.09,3.889,9.322,8.979,9.454
	c5.09,0.131,9.322-3.889,9.454-8.979H711.708z"/>
<path fill="#FFDF10" d="M766.236,316.831c-27.233-0.123-50.688,19.199-68.015,37.31c-3.817,3.995-3.673,10.329,0.322,14.146
	c3.996,3.817,10.329,3.673,14.147-0.323c14.668-15.359,33.653-31.165,53.452-31.073c27.466,0.152,49.628,22.501,49.552,49.967
	c-0.107,23.393-17.05,44.206-39.383,48.414c-16.819,3.164-34.1-3.609-51.38-20.137c-13.04-12.473-20.459-20.168-28.523-29l0,0
	L683,370.975l0,0c-17.557-20.506-46.295-54.773-82.79-54.928c-38.541-0.118-69.907,30.979-70.119,69.52
	c-0.138,32.81,23.563,62.285,55.143,68.506c3.937,0.778,7.938,1.185,11.95,1.214c19.323,0.076,38.892-8.756,57.216-25.974
	c4.485-4.225,8.617-8.203,12.288-11.889c3.813-3.754,4.003-9.842,0.431-13.824l0,0c-3.668-4.129-9.988-4.503-14.117-0.836
	c-0.125,0.112-0.248,0.227-0.368,0.344c-3.64,3.595-7.68,7.48-12.011,11.566c-17.434,16.39-34.775,23.04-51.533,19.691
	c-22.318-4.393-39.076-25.359-38.968-48.752c0.202-27.415,22.52-49.513,49.935-49.444c26.865,0.107,51.979,29.521,66.97,47.094
	c0.799,0.952,1.536,1.874,2.351,2.749c0,0,11.166,12.657,13.056,14.792c0.136,0.156,0.279,0.305,0.43,0.445
	c1.629,1.659,16.42,17.111,28.201,28.37c21.903,20.967,45.758,29.046,68.936,24.684c31.643-5.96,55.588-34.529,55.727-67.354
	C835.853,348.417,804.768,317.051,766.236,316.831z"/>
</svg>
